
<svg xmlns="http://www.w3.org/2000/svg">
    <defs>
        <symbol viewBox="0 0 16 16" id="icon-quiz-choice">
            <g stroke="#000" transform="translate(0 -16)" fill="none">
                <g stroke-width="2">
                    <path d="M16 19H6M16 24H6M16 29H6"/>
                </g>
                <path d="M1.738 18.292l1.175 1.174 2.349-2.348" stroke-width="1.174"/>
                <ellipse rx="1.611" ry="1.599" cy="23.901" cx="3" stroke-width=".785"/>
                <ellipse rx="1.611" ry="1.599" cy="28.901" cx="3" stroke-width=".785"/>
            </g>
        </symbol>
        <symbol viewBox="0 0 32 32" width="32" height="32" id="icon-quiz-cloze">
            <g color="#000" stroke="#000" stroke-linecap="square">
                <rect style="isolation:auto;mix-blend-mode:normal" width="3" height="3" x=".5" y="4.5" overflow="visible"/>
                <rect style="isolation:auto;mix-blend-mode:normal" width="13" height="3" x="18.5" y="4.5" overflow="visible"/>
                <rect style="isolation:auto;mix-blend-mode:normal" width="3" height="3" x="28.5" y="24.5" overflow="visible"/>
                <rect style="isolation:auto;mix-blend-mode:normal" width="13" height="3" x=".5" y="24.5" overflow="visible"/>
                <rect style="isolation:auto;mix-blend-mode:normal" width="31" height="3" x=".5" y="14.5" overflow="visible"/>
                <rect style="isolation:auto;mix-blend-mode:normal" width="12" height="6" x="5" y="3" ry="1" overflow="visible" fill="none" stroke-width="2"/>
                <rect rx="1" style="isolation:auto;mix-blend-mode:normal" width="12" height="6" x="15" y="23" ry="1" overflow="visible" fill="none" stroke-width="2"/>
            </g>
        </symbol>
        <symbol viewBox="0 0 32 32" id="icon-quiz-graphic">
            <g stroke="#000">
                <g transform="translate(-16.038 -16.052) scale(1.0012)" stroke-linecap="square" fill="none">
                    <circle stroke-width="1.924" cy="24.038" cx="24" r="7.038"/>
                    <rect rx=".095" ry=".049" height=".723" width="6.698" y="23.639" x="20.651" stroke-width="1.302"/>
                    <rect rx=".159" ry=".012" height="6.891" width=".891" y="20.554" x="23.554" stroke-width="1.109"/>
                </g>
                <path d="M1.04 31.502L10 23l4 4 9-10 8.507 6.719v7.78z" fill-rule="evenodd" stroke-width=".994"/>
            </g>
        </symbol>
        <symbol viewBox="0 0 32 32" id="icon-quiz-match">
            <g stroke="#000" fill="none">
                <circle cx="4" cy="4" r="3.214" stroke-width="1.573"/>
                <ellipse rx="3.207" ry="3.207" cy="4" cx="28" stroke-width="1.586"/>
                <path d="M7 4h18" stroke-width="3.976"/>
                <g fill-opacity="0">
                    <ellipse rx="3.17" ry="3.22" cy="28" cx="4.05" stroke-width="1.561"/>
                    <ellipse rx="3.214" ry="3.214" cy="16" cx="28" stroke-width="1.573"/>
                    <ellipse rx="3.258" ry="3.209" cy="16" cx="4" stroke-width="1.583"/>
                    <ellipse rx="3.175" ry="3.218" cy="28" cx="27.957" stroke-width="1.564"/>
                </g>
                <path d="M6.813 26.294l18.407-8.663" stroke-width="3.789"/>
            </g>
        </symbol>
        <symbol viewBox="0 0 16 16" id="icon-quiz-open">
            <g stroke="#000">
                <g fill="none" stroke-width="2">
                    <path d="M0 3h10M0 8h8M0 13h6"/>
                </g>
                <path d="M12.066 4.604l-3.163 7.772.176 2.391 1.758-1.495L14 5.5z" fill-rule="evenodd" stroke-width="1.159"/>
                <path d="M12.866 2.695l.288-.707 1.905.883-.288.707z" stroke-linecap="square" stroke-width="1.241"/>
            </g>
        </symbol>
        <symbol viewBox="0 0 32 32" width="32" height="32" id="icon-quiz-pair">
            <g color="#000" stroke="#000">
                <rect style="isolation:auto;mix-blend-mode:normal" width="1" height="1" x=".5" y="28.5" overflow="visible" stroke-linecap="square"/>
                <rect style="isolation:auto;mix-blend-mode:normal" width="1" height="1" x="4.5" y="28.5" overflow="visible" stroke-linecap="square"/>
                <rect style="isolation:auto;mix-blend-mode:normal" width="1" height="1" x="8.5" y="28.5" overflow="visible" stroke-linecap="square"/>
                <rect style="isolation:auto;mix-blend-mode:normal" width="1" height="1" x="12.5" y="28.5" overflow="visible" stroke-linecap="square"/>
                <rect style="isolation:auto;mix-blend-mode:normal" width="1" height="1" x="12.5" y="24.5" overflow="visible" stroke-linecap="square"/>
                <rect style="isolation:auto;mix-blend-mode:normal" width="1" height="1" x="12.5" y="20.5" overflow="visible" stroke-linecap="square"/>
                <rect style="isolation:auto;mix-blend-mode:normal" width="1" height="1" x="12.5" y="16.5" overflow="visible" stroke-linecap="square"/>
                <rect style="isolation:auto;mix-blend-mode:normal" width="1" height="1" x="12.5" y="12.5" overflow="visible" stroke-linecap="square"/>
                <rect style="isolation:auto;mix-blend-mode:normal" width="1" height="1" x="8.5" y="12.5" overflow="visible" stroke-linecap="square"/>
                <rect style="isolation:auto;mix-blend-mode:normal" width="1" height="1" x="4.5" y="12.5" overflow="visible" stroke-linecap="square"/>
                <rect style="isolation:auto;mix-blend-mode:normal" width="1" height="1" x=".5" y="12.5" overflow="visible" stroke-linecap="square"/>
                <rect style="isolation:auto;mix-blend-mode:normal" width="1" height="1" x=".5" y="16.5" overflow="visible" stroke-width="1.1" stroke-linecap="square"/>
                <rect style="isolation:auto;mix-blend-mode:normal" width="1" height="1" x=".5" y="20.5" overflow="visible" stroke-linecap="square"/>
                <rect style="isolation:auto;mix-blend-mode:normal" width="1" height="1" x=".5" y="24.5" overflow="visible" stroke-linecap="square"/>
                <rect style="isolation:auto;mix-blend-mode:normal" width="12" height="16" x="19" y="13" overflow="visible" fill="none" stroke-width="2" stroke-linecap="square"/>
                <path style="isolation:auto;mix-blend-mode:normal" d="M5 7.027c7.11-5.186 14.428-5.55 22 0" overflow="visible" fill="none" stroke-width="2" stroke-linecap="round"/>
            </g>
        </symbol>
        <symbol viewBox="0 0 16 16" id="icon-quiz-set">
            <defs>
                <marker id="a" orient="auto" overflow="visible">
                    <path d="M1.154 0l-1.73 1v-2l1.73 1z" fill-rule="evenodd" stroke="#000" stroke-width=".2pt"/>
                </marker>
            </defs>
            <g stroke="#000">
                <g transform="translate(0 -16)">
                    <rect height="5" width="4" y="22.5" x="8.5" fill="none"/>
                    <rect height="5" width="4" y="25.5" x="10.5" fill="#fff"/>
                    <rect stroke-dashoffset=".5" height="6" width="4" stroke-dasharray="1, 1" y="17.5" x="1.5" fill="none"/>
                </g>
                <path marker-end="url(#a)" d="M7.473 17.317s3.888-.472 4.08 3.182" stroke-linecap="round" stroke-width=".537" fill="none" transform="translate(0 -16)"/>
            </g>
        </symbol>
        <symbol viewBox="0 0 16 16" id="icon-quiz-words">
            <g stroke="#000" fill="none" stroke-width="2">
                <path d="M0 3h10M0 8h8M0 13h6"/>
            </g>
            <path d="M11.892 3.724a3.06 3.06 0 0 0-1.646 4.818L7.67 12.52 8 13.927l1.433-.189-.371-.997 1.093-.004-.398-.997 1.056-.01 1.248-2.065a3.026 3.026 0 0 0 1.384-.033 3.06 3.06 0 1 0-1.555-5.916zm2.324 1.485a1.045 1.045 0 1 1-1.275-.751 1.045 1.045 0 0 1 1.275.751z" class="cls-2"/>
        </symbol>

    </defs>
</svg>
