
<svg xmlns="http://www.w3.org/2000/svg">
    <defs>
        <symbol height="32" viewBox="0 0 32 32" width="32" id="icon-quiz-choice">
            <g stroke="#000">
                <g stroke-linecap="square">
                    <path d="m13 7h18v2h-18z" stroke-width="2"/>
                    <path d="m13 17h18v2h-18z" stroke-width="2"/>
                    <path d="m13 27h18v2h-18z" stroke-width="1.99999988"/>
                    <circle cx="6" cy="18" fill="none" r="3.25" stroke-width="1.50000036"/>
                    <circle cx="6" cy="28" fill="none" r="3.25" stroke-width="1.50000036"/>
                </g>
                <path d="m1.7002834 6.9655451 2.9899036 2.6325719 6.500659-7.1837134" fill="none" stroke-width="2.70000005"/>
            </g>
        </symbol>
        <symbol height="32" viewBox="0 0 32 32" width="32" id="icon-quiz-cloze">
            <g stroke="#000" stroke-linecap="square">
                <path d="m .5 4.5h3v3h-3z"/>
                <path d="m18.5 4.5h13v3h-13z"/>
                <path d="m28.5 24.5h3v3h-3z"/>
                <path d="m .5 24.5h13v3h-13z"/>
                <path d="m .5 14.5h31v3h-31z"/>
                <rect fill="none" height="6" ry="1" stroke-width="1.99999988" width="12" x="5" y="3"/>
                <rect fill="none" height="6" rx="1" stroke-width="1.99999988" width="12" x="15" y="23"/>
            </g>
        </symbol>
        <symbol height="32" viewBox="0 0 32 32" width="32" id="icon-quiz-graphic">
            <g stroke="#000">
                <path d="m31.5 31.5v-8.5l-6.5-6.5-10.5 10.5-4.5-4.5-9 9z" fill-rule="evenodd"/>
                <g stroke-linecap="square">
                    <path d="m5.9999995-9.0249996h6v .02499964h-6z" stroke-width="1.99999952" transform="scale(1 -1)"/>
                    <path d="m6 9h6v .02499964h-6z" stroke-width="1.99999952" transform="matrix(0 1 1 0 0 0)"/>
                    <ellipse cx="9" cy="9" fill="none" rx="8" ry="7.9999995" stroke-width="1.99999988"/>
                </g>
            </g>
        </symbol>
        <symbol height="32" viewBox="0 0 32 32" width="32" id="icon-quiz-match">
            <g stroke="#000" stroke-linecap="square">
                <g fill="none" stroke-width="1.50000036">
                    <circle cx="4" cy="4" r="3.25"/>
                    <circle cx="4" cy="16" r="3.25"/>
                    <circle cx="4" cy="28" r="3.25"/>
                    <circle cx="28" cy="4" r="3.25"/>
                    <circle cx="28" cy="16" r="3.25"/>
                    <circle cx="28" cy="28" r="3.25"/>
                </g>
                <path d="m8 3h16v2h-16z" stroke-width="2"/>
                <path d="m-4.2520313 25.642975h18.932318v2h-18.932318z" stroke-width="2.00005698" transform="matrix(.9036224 -.42832996 .4186162 .90816324 0 0)"/>
            </g>
        </symbol>
        <symbol viewBox="0 0 16 16" id="icon-quiz-open">
            <g stroke="#000" transform="translate(0 -16)">
                <g fill="none" stroke-width="2">
                    <path d="m0 19h10"/>
                    <path d="m0 24h8"/>
                    <path d="m0 29h6"/>
                </g>
                <path d="m12.066 20.604-3.163 7.772.1763 2.391 1.7577-1.495 3.163-7.772z" fill-rule="evenodd" stroke-width="1.1588"/>
                <path d="m12.866 18.695.2876-.7067 1.9052.88251-.2876.7067z" stroke-linecap="square" stroke-width="1.2414"/>
            </g>
        </symbol>
        <symbol height="32" viewBox="0 0 32 32" width="32" id="icon-quiz-pair">
            <g stroke="#000">
                <g stroke-linecap="square">
                    <path d="m .5 28.5h1v1h-1z"/>
                    <path d="m4.5 28.5h1v1h-1z"/>
                    <path d="m8.5 28.5h1v1h-1z"/>
                    <path d="m12.5 28.5h1v1h-1z"/>
                    <path d="m12.5 24.5h1v1h-1z"/>
                    <path d="m12.5 20.5h1v1h-1z"/>
                    <path d="m12.5 16.5h1v1h-1z"/>
                    <path d="m12.5 12.5h1v1h-1z"/>
                    <path d="m8.5 12.5h1v1h-1z"/>
                    <path d="m4.5 12.5h1v1h-1z"/>
                    <path d="m .5 12.5h1v1h-1z"/>
                    <path d="m .5 16.5h1v1h-1z" stroke-width="1.1"/>
                    <path d="m .5 20.5h1v1h-1z"/>
                    <path d="m .5 24.5h1v1h-1z"/>
                    <path d="m19 13h12v16h-12z" fill="none" stroke-width="2"/>
                </g>
                <path d="m5.0000094 7.0272534c7.1102506-5.1866626 14.4279716-5.5496417 21.9999996 0" fill="none" stroke-linecap="round" stroke-width="2"/>
            </g>
        </symbol>
        <symbol viewBox="0 0 16 16" xmlns:xlink="http://www.w3.org/1999/xlink" id="icon-quiz-set">
            <marker id="a" orient="auto" overflow="visible" refX="0" refY="0">
                <path d="m5.77 0-8.65 5v-10z" fill-rule="evenodd" stroke="#000" stroke-width="1pt" transform="scale(.2)"/>
            </marker>
            <g stroke="#000" transform="translate(0 -16)">
                <path d="m8.5 22.5h4v5h-4z" fill="none"/>
                <path d="m10.5 25.5h4v5h-4z" fill="#fff"/>
                <path d="m1.5 17.5h4v6h-4z" fill="none" stroke-dasharray="1 1" stroke-dashoffset=".5"/>
                <path d="m7.4733 17.317s3.8879-.47234 4.08 3.182" fill="none" marker-end="url(#a)" stroke-linecap="round" stroke-width=".53746"/>
            </g>
        </symbol>
        <symbol viewBox="0 0 16 16" id="icon-quiz-words">
            <g transform="translate(0 -16)">
                <g fill="none" stroke="#000" stroke-width="2">
                    <path d="m0 19h10"/>
                    <path d="m0 24h8"/>
                    <path d="m0 29h6"/>
                </g>
                <path d="m11.892 19.724a3.0598 3.0598 0 0 0 -1.6457 4.8184l-2.5769 3.978.3309 1.407 1.4329-.189-.3713-.997 1.0932-.0041-.39801-.99734 1.056-.01022 1.2477-2.0645a3.0261 3.0261 0 0 0 1.3844-.03276 3.0598 3.0598 0 1 0 -1.555-5.9162zm2.3236 1.485a1.0452 1.0452 0 1 1 -1.2749-.75148 1.0452 1.0452 0 0 1  1.2749.75148z"/>
            </g>
        </symbol>

    </defs>
</svg>
